<?xml version="1.0" standalone="no"?>
<!DOCTYPE svg PUBLIC "-//W3C//DTD SVG 20010904//EN"
 "http://www.w3.org/TR/2001/REC-SVG-20010904/DTD/svg10.dtd">
<svg version="1.0" xmlns="http://www.w3.org/2000/svg"
 width="512.000000pt" height="512.000000pt" viewBox="0 0 512.000000 512.000000"
 preserveAspectRatio="xMidYMid meet">
<metadata>
Created by potrace 1.14, written by Peter Selinger 2001-2017
</metadata>
<g transform="translate(0.000000,512.000000) scale(0.100000,-0.100000)"
fill="#000000" stroke="none">
<path d="M5099 3546 c-2 -2 -47 -7 -99 -11 -124 -8 -204 -14 -260 -20 -25 -2
-85 -6 -135 -9 -49 -4 -115 -8 -145 -11 -30 -3 -93 -7 -140 -10 -47 -3 -105
-8 -130 -10 -25 -2 -81 -7 -125 -10 -44 -3 -107 -7 -140 -10 -33 -3 -89 -7
-125 -10 -168 -11 -239 -16 -280 -20 -25 -3 -83 -7 -130 -10 -47 -3 -112 -8
-145 -11 -33 -2 -87 -7 -120 -9 -33 -2 -94 -7 -135 -11 -41 -3 -104 -7 -140
-10 -85 -5 -171 -12 -240 -18 -30 -3 -100 -8 -155 -11 -55 -4 -118 -8 -140
-10 -22 -2 -76 -6 -120 -10 -44 -3 -108 -8 -142 -11 -34 -3 -88 -7 -120 -9
-32 -2 -92 -6 -133 -9 -41 -4 -104 -8 -140 -11 -36 -2 -94 -7 -130 -10 -70 -5
-159 -12 -285 -20 -44 -3 -100 -7 -125 -10 -62 -5 -180 -14 -270 -20 -41 -3
-103 -8 -138 -11 -101 -8 -172 -13 -262 -19 -47 -3 -105 -7 -130 -10 -25 -3
-85 -8 -135 -11 -131 -10 -159 -12 -170 -13 -5 -1 19 -18 55 -38 36 -20 67
-40 68 -45 2 -4 7 -8 12 -8 4 0 83 -46 176 -101 93 -56 183 -110 200 -120 18
-9 67 -39 110 -66 44 -27 86 -52 94 -56 8 -3 75 -44 149 -89 l134 -83 79 -200
c44 -110 84 -211 90 -225 6 -14 14 -34 18 -45 4 -11 12 -31 18 -45 23 -50 93
-225 97 -240 5 -19 114 -282 119 -287 2 -2 21 6 42 18 58 33 145 80 184 101
19 10 42 23 50 28 8 5 74 42 145 81 125 69 156 87 237 131 l36 21 124 -73 c68
-41 213 -128 323 -193 110 -66 214 -127 230 -137 17 -10 91 -54 165 -98 74
-44 176 -104 225 -133 50 -29 92 -56 93 -61 2 -4 8 -8 14 -8 6 0 43 -20 84
-44 l73 -45 194 287 c349 516 409 605 491 727 45 66 84 122 89 123 4 2 7 8 7
14 0 5 8 20 18 33 9 12 23 31 30 41 6 11 58 87 113 169 56 83 161 238 233 345
72 107 134 197 139 198 4 2 7 8 7 13 0 7 56 95 70 109 14 14 50 70 50 79 0 5
4 11 8 13 5 2 26 30 47 63 21 33 40 62 44 65 3 3 22 30 42 60 19 30 44 67 53
83 16 23 18 36 5 23z"/>
</g>
</svg>
