{
	"asset":{
		"version":"2.0",
		"generator":"Houdini GLTF 2.0 Exporter"
	},
	"accessors":[
		{
			"bufferView":0,
			"componentType":5123,
			"count":30684,
			"type":"SCALAR",
			"min":[0
			],
			"max":[10252
			]
		},
		{
			"bufferView":1,
			"componentType":5126,
			"count":10253,
			"type":"VEC3",
			"min":[-0.727410018,-2.08044791,-0.722106993
			],
			"max":[0.727410018,2.08044791,0.722106993
			]
		},
		{
			"bufferView":2,
			"componentType":5126,
			"count":10253,
			"type":"VEC3",
			"min":[-0.725531936,-2.08044791,-0.668092072
			],
			"max":[0.645709932,1.97114921,0.680140018
			]
		},
		{
			"bufferView":3,
			"componentType":5126,
			"count":10253,
			"type":"VEC3",
			"min":[-0.725531936,-2.08044791,-0.668092072
			],
			"max":[0.645709932,1.97114921,0.680140018
			]
		},
		{
			"bufferView":4,
			"componentType":5126,
			"count":10253,
			"type":"VEC2",
			"min":[0,0
			],
			"max":[1,1
			]
		},
		{
			"bufferView":5,
			"componentType":5126,
			"count":10253,
			"type":"VEC3",
			"min":[-1,-1,-0.99972111
			],
			"max":[1,1,0.999987662
			]
		},
		{
			"bufferView":6,
			"componentType":5125,
			"count":10253,
			"type":"SCALAR",
			"min":[0
			],
			"max":[49
			]
		}
	],
	"buffers":[
		{
			"uri":"split_queen_data.bin",
			"byteLength":676548,
			"name":"main_buffer"
		}
	],
	"bufferViews":[
		{
			"buffer":0,
			"byteLength":61368,
			"target":34963
		},
		{
			"buffer":0,
			"byteOffset":61368,
			"byteLength":123036,
			"target":34962
		},
		{
			"buffer":0,
			"byteOffset":184404,
			"byteLength":123036,
			"target":34962
		},
		{
			"buffer":0,
			"byteOffset":307440,
			"byteLength":123036,
			"target":34962
		},
		{
			"buffer":0,
			"byteOffset":430476,
			"byteLength":82024,
			"target":34962
		},
		{
			"buffer":0,
			"byteOffset":512500,
			"byteLength":123036,
			"target":34962
		},
		{
			"buffer":0,
			"byteOffset":635536,
			"byteLength":41012,
			"target":34962
		}
	],
	"nodes":[
		{
			"name":"queen",
			"mesh":0
		}
	],
	"meshes":[
		{
			"primitives":[
				{
					"attributes":{
						"_cellpt":6,
						"NORMAL":5,
						"TEXCOORD_0":4,
						"_center":3,
						"_direction":2,
						"POSITION":1
					},
					"indices":0
				}
			],
			"name":"reverse1"
		}
	],
	"scenes":[
		{
			"nodes":[0
			]
		}
	],
	"scene":0
}
